<svg width="680" height="500" viewBox="0 0 680 500" xmlns="http://www.w3.org/2000/svg" style="font-family:-apple-system,BlinkMacSystemFont,Segoe UI,sans-serif">
<defs><marker id="arrow" viewBox="0 0 10 10" refX="8" refY="5" markerWidth="6" markerHeight="6" orient="auto-start-reverse"><path d="M2 1L8 5L2 9" fill="none" stroke="context-stroke" stroke-width="1.5" stroke-linecap="round" stroke-linejoin="round"/></marker></defs>
<rect x="40" y="20" width="600" height="460" rx="20" fill="#F1EFE8" stroke="#B4B2A9" stroke-width="0.5"/>
<text x="340" y="48" text-anchor="middle" font-size="14" font-weight="500" fill="#444441">Docker compose environment</text>
<rect x="240" y="70" width="200" height="52" rx="8" fill="#E6F1FB" stroke="#185FA5" stroke-width="0.5"/>
<text x="340" y="91" text-anchor="middle" font-size="14" font-weight="500" fill="#0C447C">User / browser</text>
<text x="340" y="109" text-anchor="middle" font-size="12" fill="#185FA5">localhost:8501</text>
<line x1="340" y1="122" x2="340" y2="155" stroke="#185FA5" stroke-width="1.5" marker-end="url(#arrow)"/>
<text x="354" y="142" font-size="12" fill="#5F5E5A">Requests</text>
<rect x="220" y="158" width="240" height="52" rx="8" fill="#E1F5EE" stroke="#0F6E56" stroke-width="0.5"/>
<text x="340" y="179" text-anchor="middle" font-size="14" font-weight="500" fill="#085041">Streamlit dashboard (app)</text>
<text x="340" y="197" text-anchor="middle" font-size="12" fill="#0F6E56">Frontend — port 8501</text>
<line x1="340" y1="210" x2="340" y2="248" stroke="#0F6E56" stroke-width="1.5" marker-end="url(#arrow)"/>
<text x="354" y="234" font-size="12" fill="#5F5E5A">API calls</text>
<rect x="220" y="250" width="240" height="52" rx="8" fill="#EEEDFE" stroke="#534AB7" stroke-width="0.5"/>
<text x="340" y="271" text-anchor="middle" font-size="14" font-weight="500" fill="#3C3489">FastAPI backend (api)</text>
<text x="340" y="289" text-anchor="middle" font-size="12" fill="#534AB7">/decide · /feedback · /metrics</text>
<line x1="280" y1="302" x2="160" y2="370" stroke="#534AB7" stroke-width="1.5" marker-end="url(#arrow)"/>
<text x="200" y="332" font-size="12" fill="#5F5E5A">Queries</text>
<line x1="400" y1="302" x2="520" y2="370" stroke="#534AB7" stroke-width="1.5" marker-end="url(#arrow)"/>
<text x="466" y="332" font-size="12" fill="#5F5E5A" text-anchor="end">Select action</text>
<rect x="60" y="372" width="200" height="52" rx="8" fill="#FAEEDA" stroke="#854F0B" stroke-width="0.5"/>
<text x="160" y="393" text-anchor="middle" font-size="14" font-weight="500" fill="#633806">PostgreSQL (db)</text>
<text x="160" y="411" text-anchor="middle" font-size="12" fill="#854F0B">Customers · actions · rewards</text>
<rect x="420" y="372" width="200" height="52" rx="8" fill="#FAECE7" stroke="#993C1D" stroke-width="0.5"/>
<text x="520" y="393" text-anchor="middle" font-size="14" font-weight="500" fill="#712B13">LinUCB model (model)</text>
<text x="520" y="411" text-anchor="middle" font-size="12" fill="#993C1D">Bandit engine + baselines</text>
<line x1="420" y1="398" x2="262" y2="398" stroke="#993C1D" stroke-width="1" stroke-dasharray="4 3" marker-end="url(#arrow)"/>
<text x="340" y="392" text-anchor="middle" font-size="11" fill="#888780">Read/write state</text>
<rect x="60" y="440" width="200" height="30" rx="8" fill="#EAF3DE" stroke="#3B6D11" stroke-width="0.5"/>
<text x="160" y="460" text-anchor="middle" font-size="12" fill="#27500A">pgAdmin — port 5050</text>
<line x1="160" y1="424" x2="160" y2="438" stroke="#3B6D11" stroke-width="1" marker-end="url(#arrow)"/>
<rect x="420" y="440" width="200" height="30" rx="8" fill="#F1EFE8" stroke="#888780" stroke-width="0.5"/>
<text x="520" y="460" text-anchor="middle" font-size="12" fill="#444441">ETL / simulation (etl)</text>
<line x1="520" y1="424" x2="520" y2="438" stroke="#5F5E5A" stroke-width="1" marker-end="url(#arrow)"/>
<path d="M420 455 L262 455 L262 424" fill="none" stroke="#5F5E5A" stroke-width="1" stroke-dasharray="4 3" marker-end="url(#arrow)"/>
<text x="340" y="450" text-anchor="middle" font-size="11" fill="#888780">Load features</text>
</svg>
